Coordinates
version=1
nRows=16
nColumns=36
inDegrees=yes

Units are S.I. units (second, meters, Newtons, ...)
If the header above contains a line with 'inDegrees', this indicates whether rotational values are in degrees (yes) or radians (no).

endheader
time	pelvis_tilt	pelvis_list	pelvis_rotation	pelvis_tx	pelvis_ty	pelvis_tz	hip_flexion_r	hip_adduction_r	hip_rotation_r	knee_angle_r	knee_angle_r_beta	ankle_angle_r	subtalar_angle_r	mtp_angle_r	hip_flexion_l	hip_adduction_l	hip_rotation_l	knee_angle_l	knee_angle_l_beta	ankle_angle_l	subtalar_angle_l	mtp_angle_l	lumbar_extension	lumbar_bending	lumbar_rotation	arm_flex_r	arm_add_r	arm_rot_r	elbow_flex_r	pro_sup_r	arm_flex_l	arm_add_l	arm_rot_l	elbow_flex_l	pro_sup_l
      1.16000000	    -17.77224407	      0.09709134	      5.66478914	     -0.70969158	      1.28326806	     -0.57055897	     33.82707352	     -3.41220016	     -2.71477264	     47.34813612	      0.82638087	    -31.18685026	     -5.28721647	     -4.72681912	     26.69942274	     -4.12376467	     -1.91868031	     41.57564794	      0.72563195	    -25.87349620	    -12.25631739	     -4.72681912	     -3.88347594	      7.20870431	     -4.06491820	     54.31220126	    -61.97972267	     16.46169877	     89.61726173	    102.32354464	     72.83376628	    -71.76188230	     22.32756920	     89.63263569	     93.66712251
      1.17000000	    -17.66256672	      0.14803742	      5.52044445	     -0.69989812	      1.28815086	     -0.57022053	     34.41739277	     -3.49942705	     -2.89497955	     46.02768774	      0.80333470	    -30.95647761	     -4.66105577	     -4.89021492	     26.90274348	     -4.21404859	     -2.40218749	     40.53346266	      0.70744238	    -26.82381343	    -14.47815881	     -4.89021492	     -4.23800077	      7.33212069	     -3.63099342	     50.91619460	    -62.47962403	     14.01595590	     88.34542508	    102.62167292	     67.99501065	    -72.47279302	     18.41386846	     89.58272707	     93.94348058
      1.18000000	    -17.54015023	      0.10461214	      5.33538525	     -0.69029165	      1.29221908	     -0.57003392	     34.92795237	     -3.55810134	     -3.32491098	     44.41755173	      0.77523252	    -31.08717475	     -4.37115473	     -5.19773937	     27.05800095	     -4.47801002	     -2.95132151	     39.20743837	      0.68429889	    -26.67428564	    -14.73054210	     -5.19773937	     -4.67845221	      7.73604268	     -3.04766828	     47.67791998	    -63.07052893	     11.61728390	     87.27876308	    103.28039487	     61.12117506	    -72.56261784	     12.01910634	     89.58798506	     94.42331267
      1.19000000	    -17.38223291	      0.17142362	      5.15414244	     -0.68102054	      1.29546599	     -0.57003941	     35.29142684	     -3.69439242	     -3.54324846	     42.57884018	      0.74314095	    -30.97493816	     -4.24478024	     -6.09863188	     27.14120251	     -4.55927414	     -3.37399164	     37.62100579	      0.65661042	    -26.56716219	    -14.32322573	     -6.09863188	     -5.24841952	      8.04971280	     -3.93626325	     48.66272925	    -61.80132781	     13.31484620	     84.22961832	    105.09875928	     49.22295050	    -74.42708808	      0.78015961	     90.94878716	     95.03949823
      1.20000000	    -17.20809213	      0.29743041	      4.92801786	     -0.67181785	      1.29777449	     -0.56988348	     35.61084106	     -3.87005692	     -3.75054872	     40.66630227	      0.70976087	    -30.88066512	     -4.53385176	     -6.17239221	     27.15288483	     -4.61768454	     -3.86234084	     35.82807439	      0.62531786	    -26.26196056	    -13.09256734	     -6.17239221	     -5.84583668	      8.13443037	     -2.73977892	     44.64387351	    -62.66726966	      9.92394771	     83.01171356	    104.92421572	     45.80083832	    -73.47435542	     -1.85615681	     90.76295829	     94.84406118
      1.21000000	    -16.96948427	      0.44412966	      4.66623168	     -0.66272314	      1.29916799	     -0.56981797	     35.84061215	     -4.05781771	     -3.95790636	     38.67445378	      0.67499655	    -30.98381606	     -5.32621930	     -6.25798829	     27.10611587	     -4.66061693	     -4.37282313	     33.96619898	      0.59282201	    -26.14036261	    -11.57140251	     -6.25798829	     -6.56851824	      8.21668132	     -1.72148376	     41.37131447	    -63.20718154	      7.16478715	     81.54132052	    105.01653721	     42.17204898	    -72.70534650	     -4.71735927	     90.63089255	     94.70760037
      1.22000000	    -16.66572278	      0.62464853	      4.39835511	     -0.65364168	      1.29962414	     -0.56960005	     35.94675373	     -4.23090603	     -4.09486733	     36.60089677	      0.63880616	    -31.32138720	     -6.61339627	     -6.33180605	     27.03858468	     -4.72259882	     -4.97817298	     32.15905337	      0.56128137	    -26.10524059	     -9.74917119	     -6.33180605	     -7.37576467	      8.26713901	     -0.88137661	     38.77077770	    -63.56873226	      5.21479397	     79.97154334	    105.17659675	     38.50499423	    -72.11249533	     -7.58500384	     90.55224164	     94.60616703
      1.23000000	    -16.35323861	      0.78903426	      4.17299892	     -0.64447045	      1.29908247	     -0.56946737	     36.02941388	     -4.46159540	     -4.35740279	     34.62112709	      0.60425266	    -31.51278064	     -7.83471355	     -6.94759618	     27.03573321	     -4.77233268	     -5.48438744	     30.48620444	      0.53208464	    -26.36392646	     -8.14003750	     -6.94759618	     -8.20396154	      8.47935810	     -2.97183461	     44.18111847	    -61.14719107	     11.44915103	     75.96440556	    106.95118897	     20.72768266	    -73.55005775	    -24.67107091	     92.37090864	     94.45640090
      1.24000000	    -16.02832777	      0.98669952	      3.99504663	     -0.63518935	      1.29751117	     -0.56920460	     36.09652927	     -4.74002680	     -4.66065012	     32.76303713	      0.57182287	    -31.74218319	     -9.31724552	     -6.98017499	     27.10150827	     -4.77056530	     -5.87853930	     29.00684985	      0.50626504	    -26.56874952	     -6.60869041	     -6.98017499	     -8.95577562	      8.41006517	     -2.14557987	     41.73926882	    -61.64148878	      9.79763004	     74.55787186	    106.54357699	     18.91512805	    -72.76645621	    -25.64858387	     92.40443125	     94.46191661
      1.25000000	    -15.62451333	      1.17365259	      3.86013337	     -0.62589746	      1.29490223	     -0.56901335	     36.05793518	     -5.06299024	     -5.14795304	     31.02376009	      0.54146676	    -31.36074670	    -10.30882904	     -6.98786342	     27.14815338	     -4.72119404	     -6.00459729	     27.66893153	      0.48291396	    -27.03424437	     -5.64185085	     -6.98786342	     -9.63281071	      8.35569796	     -1.43889349	     40.17293974	    -62.14590183	      9.44041555	     72.69523147	    106.30450261	     17.93298454	    -72.00109550	    -25.81794043	     92.27938617	     94.44756631
      1.26000000	    -15.24347990	      1.40103998	      3.68633033	     -0.61653717	      1.29111433	     -0.56831880	     36.01497746	     -5.22307532	     -5.27048387	     29.26627456	      0.51079285	    -32.04611814	    -12.49753737	     -7.01977974	     27.30048663	     -4.76191864	     -6.31673983	     26.55985474	      0.46355691	    -27.06603517	     -4.23359265	     -7.01977974	    -10.29436021	      8.33551711	     -0.94814633	     38.51394516	    -62.12748279	      8.23254019	     71.59551367	    106.11507615	     15.45561598	    -71.30005121	    -27.58401223	     92.09785101	     94.54000367
      1.27000000	    -14.91189799	      1.62339812	      3.62731638	     -0.60700031	      1.28625388	     -0.56788013	     36.01468321	     -5.55271317	     -5.72845807	     27.70263454	      0.48350218	    -31.69087354	    -12.94979998	     -7.02597198	     27.50360301	     -4.64045060	     -6.10906175	     25.41954920	      0.44365483	    -27.51491807	     -3.48287583	     -7.02597198	    -10.69917167	      8.37708868	     -0.52782207	     37.59978383	    -62.34074243	      8.31981092	     70.14809255	    106.00822382	     14.34696778	    -70.45116647	    -27.87885937	     91.63902919	     94.50356356
      1.28000000	    -14.71318096	      1.85868004	      3.62333668	     -0.59710465	      1.28028783	     -0.56748198	     36.10420919	     -5.87013650	     -5.94172785	     26.19006186	      0.45710281	    -32.05500114	    -13.46367700	     -7.30718036	     27.90914875	     -4.50732871	     -5.87787322	     24.48759357	      0.42738913	    -27.64606756	     -2.80310026	     -7.30718036	    -11.25218632	      8.26228299	     -3.40700428	     43.85117237	    -59.32002352	     15.35151289	     66.46763310	    106.81795011	     -3.62562040	    -70.21951759	    -45.47801201	     93.76215381	     95.35041805
      1.29000000	    -14.60442172	      2.06568249	      3.70132305	     -0.58721011	      1.27308992	     -0.56698140	     36.28734708	     -6.15549691	     -6.10337053	     24.83051148	      0.43337418	    -32.16883024	    -13.29733558	     -7.30863513	     28.46804080	     -4.35884998	     -5.47973602	     23.65642926	      0.41288258	    -27.64098807	     -2.55265557	     -7.30863513	    -11.42399640	      7.98892752	     -3.07424125	     42.43511144	    -59.77192978	     15.45883556	     65.33155234	    106.72051938	     -4.09870412	    -69.66905963	    -45.43904162	     93.87897949	     95.34430282
      1.30000000	    -14.32504668	      2.31241653	      3.84775842	     -0.57740386	      1.26509084	     -0.56642701	     36.23464241	     -6.41812403	     -6.00244581	     23.45350856	      0.40934095	    -32.91092589	    -12.81508133	     -7.31112178	     28.84353107	     -4.08256658	     -4.53289177	     22.85900594	      0.39896492	    -27.70356537	     -2.32354288	     -7.31112178	    -11.77717362	      7.74595805	     -2.78603944	     41.07750491	    -60.02901769	     15.31107977	     64.44511737	    106.82178316	     -4.67784214	    -69.22757952	    -45.35346690	     94.14367697	     95.38431243
      1.31000000	    -14.09762202	      2.55607799	      4.08286662	     -0.56751171	      1.25588397	     -0.56583970	     36.20130518	     -6.66132369	     -5.78041322	     22.17311881	      0.38699393	    -33.67287564	    -12.31793025	     -7.31506894	     29.32293002	     -3.77544485	     -3.52102139	     22.20725616	      0.38758974	    -27.62650127	     -2.60976835	     -7.31506894	    -11.98207939	      7.52698366	     -2.68006624	     39.83787119	    -60.13080061	     15.20656544	     63.78107751	    107.38373567	     -5.24912069	    -68.80381968	    -45.41499865	     94.16436151	     95.42553339
